<mxfile host="app.diagrams.net" modified="2020-04-09T04:21:33.482Z" agent="5.0 (Windows NT 10.0; Win64; x64) AppleWebKit/537.36 (KHTML, like Gecko) Chrome/80.0.3987.163 Safari/537.36" etag="CVG56kNr26AHw06lRCTy" version="12.9.10" type="github">
  <diagram id="-qk2Ghb_1iSx_dgg7gfJ" name="Page-1">
    <mxGraphModel dx="1422" dy="828" grid="0" gridSize="10" guides="1" tooltips="1" connect="1" arrows="1" fold="1" page="1" pageScale="1" pageWidth="1100" pageHeight="850" background="#CCCCCC" math="0" shadow="0">
      <root>
        <mxCell id="0" />
        <mxCell id="1" parent="0" />
        <mxCell id="FTtYy8rnEc6SvxEoSqDr-1" value="" style="rounded=1;whiteSpace=wrap;html=1;fillColor=#493829;" parent="1" vertex="1">
          <mxGeometry x="20" y="140" width="1050" height="450" as="geometry" />
        </mxCell>
        <mxCell id="FTtYy8rnEc6SvxEoSqDr-7" value="" style="ellipse;whiteSpace=wrap;html=1;aspect=fixed;fillColor=#B99C6B;" parent="1" vertex="1">
          <mxGeometry x="790" y="390" width="100" height="100" as="geometry" />
        </mxCell>
        <mxCell id="FTtYy8rnEc6SvxEoSqDr-8" value="" style="rounded=1;whiteSpace=wrap;html=1;fillColor=#b99c6b;direction=south;strokeColor=#000000;fontColor=#ffffff;" parent="1" vertex="1">
          <mxGeometry x="910" y="310" width="100" height="260" as="geometry" />
        </mxCell>
        <mxCell id="FTtYy8rnEc6SvxEoSqDr-9" value="" style="ellipse;whiteSpace=wrap;html=1;aspect=fixed;fillColor=#B99C6B;" parent="1" vertex="1">
          <mxGeometry x="310" y="390" width="100" height="100" as="geometry" />
        </mxCell>
        <mxCell id="FTtYy8rnEc6SvxEoSqDr-10" value="" style="ellipse;whiteSpace=wrap;html=1;aspect=fixed;fillColor=#B99C6B;" parent="1" vertex="1">
          <mxGeometry x="430" y="390" width="100" height="100" as="geometry" />
        </mxCell>
        <mxCell id="FTtYy8rnEc6SvxEoSqDr-11" value="" style="ellipse;whiteSpace=wrap;html=1;aspect=fixed;fillColor=#B99C6B;" parent="1" vertex="1">
          <mxGeometry x="550" y="390" width="100" height="100" as="geometry" />
        </mxCell>
        <mxCell id="FTtYy8rnEc6SvxEoSqDr-12" value="" style="ellipse;whiteSpace=wrap;html=1;aspect=fixed;fillColor=#B99C6B;" parent="1" vertex="1">
          <mxGeometry x="670" y="390" width="100" height="100" as="geometry" />
        </mxCell>
        <mxCell id="FTtYy8rnEc6SvxEoSqDr-13" value="" style="ellipse;whiteSpace=wrap;html=1;aspect=fixed;fillColor=#B99C6B;" parent="1" vertex="1">
          <mxGeometry x="190" y="390" width="100" height="100" as="geometry" />
        </mxCell>
        <mxCell id="FTtYy8rnEc6SvxEoSqDr-14" value="" style="ellipse;whiteSpace=wrap;html=1;aspect=fixed;fillColor=#B99C6B;" parent="1" vertex="1">
          <mxGeometry x="790" y="250" width="100" height="100" as="geometry" />
        </mxCell>
        <mxCell id="FTtYy8rnEc6SvxEoSqDr-15" value="" style="ellipse;whiteSpace=wrap;html=1;aspect=fixed;fillColor=#B99C6B;" parent="1" vertex="1">
          <mxGeometry x="670" y="250" width="100" height="100" as="geometry" />
        </mxCell>
        <mxCell id="FTtYy8rnEc6SvxEoSqDr-16" value="" style="ellipse;whiteSpace=wrap;html=1;aspect=fixed;fillColor=#B99C6B;" parent="1" vertex="1">
          <mxGeometry x="550" y="250" width="100" height="100" as="geometry" />
        </mxCell>
        <mxCell id="FTtYy8rnEc6SvxEoSqDr-17" value="" style="ellipse;whiteSpace=wrap;html=1;aspect=fixed;fillColor=#B99C6B;" parent="1" vertex="1">
          <mxGeometry x="430" y="250" width="100" height="100" as="geometry" />
        </mxCell>
        <mxCell id="FTtYy8rnEc6SvxEoSqDr-18" value="" style="ellipse;whiteSpace=wrap;html=1;aspect=fixed;fillColor=#B99C6B;" parent="1" vertex="1">
          <mxGeometry x="310" y="250" width="100" height="100" as="geometry" />
        </mxCell>
        <mxCell id="FTtYy8rnEc6SvxEoSqDr-19" value="" style="ellipse;whiteSpace=wrap;html=1;aspect=fixed;fillColor=#B99C6B;" parent="1" vertex="1">
          <mxGeometry x="190" y="250" width="100" height="100" as="geometry" />
        </mxCell>
        <mxCell id="FTtYy8rnEc6SvxEoSqDr-20" value="" style="rounded=1;whiteSpace=wrap;html=1;fillColor=#b99c6b;direction=south;strokeColor=#000000;fontColor=#ffffff;glass=0;shadow=0;" parent="1" vertex="1">
          <mxGeometry x="70" y="170" width="100" height="260" as="geometry" />
        </mxCell>
        <mxCell id="FTtYy8rnEc6SvxEoSqDr-21" value="" style="shape=image;html=1;verticalAlign=top;verticalLabelPosition=bottom;labelBackgroundColor=#ffffff;imageAspect=0;aspect=fixed;image=https://cdn0.iconfinder.com/data/icons/glyphpack/50/remove-rounded-128.png;fillColor=#B99C6B;" parent="1" vertex="1">
          <mxGeometry x="1030" y="20" width="50" height="50" as="geometry" />
        </mxCell>
        <mxCell id="FTtYy8rnEc6SvxEoSqDr-23" value="" style="shape=mxgraph.bpmn.loop;html=1;outlineConnect=0;shadow=0;glass=0;strokeColor=#000000;fillColor=#B99C6B;" parent="1" vertex="1">
          <mxGeometry x="680" y="630" width="80" height="80" as="geometry" />
        </mxCell>
        <mxCell id="FTtYy8rnEc6SvxEoSqDr-24" value="" style="ellipse;whiteSpace=wrap;html=1;aspect=fixed;shadow=0;glass=0;strokeColor=#000000;fillColor=#000000;" parent="1" vertex="1">
          <mxGeometry x="200" y="430" width="20" height="20" as="geometry" />
        </mxCell>
        <mxCell id="FTtYy8rnEc6SvxEoSqDr-25" value="" style="ellipse;whiteSpace=wrap;html=1;aspect=fixed;shadow=0;glass=0;strokeColor=#000000;fillColor=#000000;" parent="1" vertex="1">
          <mxGeometry x="230" y="460" width="20" height="20" as="geometry" />
        </mxCell>
        <mxCell id="FTtYy8rnEc6SvxEoSqDr-26" value="" style="ellipse;whiteSpace=wrap;html=1;aspect=fixed;shadow=0;glass=0;strokeColor=#000000;fillColor=#000000;" parent="1" vertex="1">
          <mxGeometry x="260" y="430" width="20" height="20" as="geometry" />
        </mxCell>
        <mxCell id="FTtYy8rnEc6SvxEoSqDr-27" value="" style="ellipse;whiteSpace=wrap;html=1;aspect=fixed;shadow=0;glass=0;strokeColor=#000000;fillColor=#000000;" parent="1" vertex="1">
          <mxGeometry x="230" y="400" width="20" height="20" as="geometry" />
        </mxCell>
        <mxCell id="FTtYy8rnEc6SvxEoSqDr-31" value="" style="ellipse;whiteSpace=wrap;html=1;aspect=fixed;shadow=0;glass=0;strokeColor=#000000;fillColor=#000000;" parent="1" vertex="1">
          <mxGeometry x="230" y="430" width="20" height="20" as="geometry" />
        </mxCell>
        <mxCell id="FTtYy8rnEc6SvxEoSqDr-33" value="&lt;font color=&quot;#00ff00&quot; style=&quot;font-size: 11px&quot;&gt;+3&lt;/font&gt;" style="text;html=1;align=center;verticalAlign=middle;resizable=0;points=[];autosize=1;" parent="1" vertex="1">
          <mxGeometry x="225" y="430" width="30" height="20" as="geometry" />
        </mxCell>
        <mxCell id="FTtYy8rnEc6SvxEoSqDr-38" value="" style="ellipse;whiteSpace=wrap;html=1;aspect=fixed;shadow=0;glass=0;strokeColor=#000000;fillColor=#000000;" parent="1" vertex="1">
          <mxGeometry x="350" y="430" width="20" height="20" as="geometry" />
        </mxCell>
        <mxCell id="FTtYy8rnEc6SvxEoSqDr-40" value="" style="ellipse;whiteSpace=wrap;html=1;aspect=fixed;shadow=0;glass=0;strokeColor=#000000;fillColor=#000000;" parent="1" vertex="1">
          <mxGeometry x="490" y="430" width="20" height="20" as="geometry" />
        </mxCell>
        <mxCell id="FTtYy8rnEc6SvxEoSqDr-41" value="" style="ellipse;whiteSpace=wrap;html=1;aspect=fixed;shadow=0;glass=0;strokeColor=#000000;fillColor=#000000;" parent="1" vertex="1">
          <mxGeometry x="450" y="430" width="20" height="20" as="geometry" />
        </mxCell>
        <mxCell id="FTtYy8rnEc6SvxEoSqDr-42" value="" style="ellipse;whiteSpace=wrap;html=1;aspect=fixed;shadow=0;glass=0;strokeColor=#000000;fillColor=#000000;" parent="1" vertex="1">
          <mxGeometry x="610" y="430" width="20" height="20" as="geometry" />
        </mxCell>
        <mxCell id="FTtYy8rnEc6SvxEoSqDr-43" value="" style="ellipse;whiteSpace=wrap;html=1;aspect=fixed;shadow=0;glass=0;strokeColor=#000000;fillColor=#000000;" parent="1" vertex="1">
          <mxGeometry x="570" y="430" width="20" height="20" as="geometry" />
        </mxCell>
        <mxCell id="FTtYy8rnEc6SvxEoSqDr-44" value="" style="ellipse;whiteSpace=wrap;html=1;aspect=fixed;shadow=0;glass=0;strokeColor=#000000;fillColor=#000000;" parent="1" vertex="1">
          <mxGeometry x="730" y="430" width="20" height="20" as="geometry" />
        </mxCell>
        <mxCell id="FTtYy8rnEc6SvxEoSqDr-45" value="" style="ellipse;whiteSpace=wrap;html=1;aspect=fixed;shadow=0;glass=0;strokeColor=#000000;fillColor=#000000;" parent="1" vertex="1">
          <mxGeometry x="690" y="430" width="20" height="20" as="geometry" />
        </mxCell>
        <mxCell id="FTtYy8rnEc6SvxEoSqDr-46" value="" style="ellipse;whiteSpace=wrap;html=1;aspect=fixed;shadow=0;glass=0;strokeColor=#000000;fillColor=#000000;" parent="1" vertex="1">
          <mxGeometry x="590" y="410" width="20" height="20" as="geometry" />
        </mxCell>
        <mxCell id="FTtYy8rnEc6SvxEoSqDr-48" value="" style="ellipse;whiteSpace=wrap;html=1;aspect=fixed;shadow=0;glass=0;strokeColor=#000000;fillColor=#000000;" parent="1" vertex="1">
          <mxGeometry x="710" y="450" width="20" height="20" as="geometry" />
        </mxCell>
        <mxCell id="FTtYy8rnEc6SvxEoSqDr-49" value="" style="ellipse;whiteSpace=wrap;html=1;aspect=fixed;shadow=0;glass=0;strokeColor=#000000;fillColor=#000000;" parent="1" vertex="1">
          <mxGeometry x="710" y="410" width="20" height="20" as="geometry" />
        </mxCell>
        <mxCell id="FTtYy8rnEc6SvxEoSqDr-51" value="" style="ellipse;whiteSpace=wrap;html=1;aspect=fixed;shadow=0;glass=0;strokeColor=#000000;fillColor=#000000;" parent="1" vertex="1">
          <mxGeometry x="950" y="530" width="20" height="20" as="geometry" />
        </mxCell>
        <mxCell id="FTtYy8rnEc6SvxEoSqDr-52" value="" style="ellipse;whiteSpace=wrap;html=1;aspect=fixed;shadow=0;glass=0;strokeColor=#000000;fillColor=#000000;" parent="1" vertex="1">
          <mxGeometry x="950" y="500" width="20" height="20" as="geometry" />
        </mxCell>
        <mxCell id="FTtYy8rnEc6SvxEoSqDr-53" value="" style="ellipse;whiteSpace=wrap;html=1;aspect=fixed;shadow=0;glass=0;strokeColor=#000000;fillColor=#000000;" parent="1" vertex="1">
          <mxGeometry x="950" y="470" width="20" height="20" as="geometry" />
        </mxCell>
        <mxCell id="FTtYy8rnEc6SvxEoSqDr-54" value="" style="ellipse;whiteSpace=wrap;html=1;aspect=fixed;shadow=0;glass=0;strokeColor=#000000;fillColor=#000000;" parent="1" vertex="1">
          <mxGeometry x="950" y="440" width="20" height="20" as="geometry" />
        </mxCell>
        <mxCell id="FTtYy8rnEc6SvxEoSqDr-57" value="" style="ellipse;whiteSpace=wrap;html=1;aspect=fixed;shadow=0;glass=0;strokeColor=#000000;fillColor=#000000;" parent="1" vertex="1">
          <mxGeometry x="950" y="410" width="20" height="20" as="geometry" />
        </mxCell>
        <mxCell id="FTtYy8rnEc6SvxEoSqDr-58" value="" style="ellipse;whiteSpace=wrap;html=1;aspect=fixed;shadow=0;glass=0;strokeColor=#000000;fillColor=#000000;" parent="1" vertex="1">
          <mxGeometry x="950" y="380" width="20" height="20" as="geometry" />
        </mxCell>
        <mxCell id="FTtYy8rnEc6SvxEoSqDr-59" value="" style="ellipse;whiteSpace=wrap;html=1;aspect=fixed;shadow=0;glass=0;strokeColor=#000000;fillColor=#000000;" parent="1" vertex="1">
          <mxGeometry x="950" y="350" width="20" height="20" as="geometry" />
        </mxCell>
        <mxCell id="FTtYy8rnEc6SvxEoSqDr-61" value="&lt;font color=&quot;#00ff00&quot; style=&quot;font-size: 11px&quot;&gt;+3&lt;/font&gt;" style="text;html=1;align=center;verticalAlign=middle;resizable=0;points=[];autosize=1;" parent="1" vertex="1">
          <mxGeometry x="945" y="350" width="30" height="20" as="geometry" />
        </mxCell>
        <mxCell id="FTtYy8rnEc6SvxEoSqDr-62" value="&lt;font style=&quot;font-size: 16px&quot; color=&quot;#00ff00&quot;&gt;&lt;b&gt;A1&lt;/b&gt;&lt;/font&gt;" style="text;html=1;align=center;verticalAlign=middle;resizable=0;points=[];autosize=1;" parent="1" vertex="1">
          <mxGeometry x="220" y="520" width="40" height="20" as="geometry" />
        </mxCell>
        <mxCell id="FTtYy8rnEc6SvxEoSqDr-63" value="&lt;font style=&quot;font-size: 16px&quot; color=&quot;#00ff00&quot;&gt;&lt;b&gt;A2&lt;/b&gt;&lt;/font&gt;" style="text;html=1;align=center;verticalAlign=middle;resizable=0;points=[];autosize=1;" parent="1" vertex="1">
          <mxGeometry x="340" y="520" width="40" height="20" as="geometry" />
        </mxCell>
        <mxCell id="FTtYy8rnEc6SvxEoSqDr-64" value="&lt;font style=&quot;font-size: 16px&quot; color=&quot;#00ff00&quot;&gt;&lt;b&gt;A3&lt;/b&gt;&lt;/font&gt;" style="text;html=1;align=center;verticalAlign=middle;resizable=0;points=[];autosize=1;" parent="1" vertex="1">
          <mxGeometry x="460" y="520" width="40" height="20" as="geometry" />
        </mxCell>
        <mxCell id="FTtYy8rnEc6SvxEoSqDr-65" value="&lt;font style=&quot;font-size: 16px&quot; color=&quot;#00ff00&quot;&gt;&lt;b&gt;A5&lt;/b&gt;&lt;/font&gt;" style="text;html=1;align=center;verticalAlign=middle;resizable=0;points=[];autosize=1;" parent="1" vertex="1">
          <mxGeometry x="700" y="520" width="40" height="20" as="geometry" />
        </mxCell>
        <mxCell id="FTtYy8rnEc6SvxEoSqDr-66" value="&lt;font style=&quot;font-size: 16px&quot; color=&quot;#00ff00&quot;&gt;&lt;b&gt;A4&lt;/b&gt;&lt;/font&gt;" style="text;html=1;align=center;verticalAlign=middle;resizable=0;points=[];autosize=1;" parent="1" vertex="1">
          <mxGeometry x="580" y="520" width="40" height="20" as="geometry" />
        </mxCell>
        <mxCell id="FTtYy8rnEc6SvxEoSqDr-67" value="&lt;font style=&quot;font-size: 16px&quot; color=&quot;#00ff00&quot;&gt;&lt;b&gt;A6&lt;br&gt;&lt;/b&gt;&lt;/font&gt;" style="text;html=1;align=center;verticalAlign=middle;resizable=0;points=[];autosize=1;" parent="1" vertex="1">
          <mxGeometry x="820" y="520" width="40" height="20" as="geometry" />
        </mxCell>
        <mxCell id="FTtYy8rnEc6SvxEoSqDr-68" value="" style="verticalLabelPosition=bottom;verticalAlign=top;html=1;strokeWidth=2;shape=mxgraph.arrows2.arrow;dy=0.6;dx=40;notch=0;shadow=0;glass=0;fillColor=#000000;" parent="1" vertex="1">
          <mxGeometry x="310" y="640" width="100" height="70" as="geometry" />
        </mxCell>
        <mxCell id="FTtYy8rnEc6SvxEoSqDr-69" value="&lt;p&gt;&lt;font color=&quot;#00ff00&quot; style=&quot;font-size: 16px&quot;&gt;Mancala A&lt;/font&gt;&lt;/p&gt;" style="text;html=1;align=center;verticalAlign=middle;resizable=0;points=[];autosize=1;" parent="1" vertex="1">
          <mxGeometry x="915" y="270" width="90" height="40" as="geometry" />
        </mxCell>
        <mxCell id="FTtYy8rnEc6SvxEoSqDr-70" value="&lt;p&gt;&lt;font color=&quot;#00ff00&quot; style=&quot;font-size: 16px&quot;&gt;Mancala B&lt;/font&gt;&lt;/p&gt;" style="text;html=1;align=center;verticalAlign=middle;resizable=0;points=[];autosize=1;" parent="1" vertex="1">
          <mxGeometry x="75" y="430" width="90" height="40" as="geometry" />
        </mxCell>
        <mxCell id="FTtYy8rnEc6SvxEoSqDr-71" value="" style="ellipse;whiteSpace=wrap;html=1;aspect=fixed;shadow=0;glass=0;strokeColor=#000000;fillColor=#000000;" parent="1" vertex="1">
          <mxGeometry x="110" y="390" width="20" height="20" as="geometry" />
        </mxCell>
        <mxCell id="FTtYy8rnEc6SvxEoSqDr-72" value="" style="ellipse;whiteSpace=wrap;html=1;aspect=fixed;shadow=0;glass=0;strokeColor=#000000;fillColor=#000000;" parent="1" vertex="1">
          <mxGeometry x="110" y="360" width="20" height="20" as="geometry" />
        </mxCell>
        <mxCell id="FTtYy8rnEc6SvxEoSqDr-74" value="&lt;font style=&quot;font-size: 16px&quot; color=&quot;#00ff00&quot;&gt;&lt;b&gt;B6&lt;/b&gt;&lt;/font&gt;" style="text;html=1;align=center;verticalAlign=middle;resizable=0;points=[];autosize=1;" parent="1" vertex="1">
          <mxGeometry x="220" y="200" width="40" height="20" as="geometry" />
        </mxCell>
        <mxCell id="FTtYy8rnEc6SvxEoSqDr-75" value="&lt;font style=&quot;font-size: 16px&quot; color=&quot;#00ff00&quot;&gt;&lt;b&gt;B5&lt;/b&gt;&lt;/font&gt;" style="text;html=1;align=center;verticalAlign=middle;resizable=0;points=[];autosize=1;" parent="1" vertex="1">
          <mxGeometry x="340" y="200" width="40" height="20" as="geometry" />
        </mxCell>
        <mxCell id="FTtYy8rnEc6SvxEoSqDr-76" value="&lt;font style=&quot;font-size: 16px&quot; color=&quot;#00ff00&quot;&gt;&lt;b&gt;B4&lt;/b&gt;&lt;/font&gt;" style="text;html=1;align=center;verticalAlign=middle;resizable=0;points=[];autosize=1;" parent="1" vertex="1">
          <mxGeometry x="460" y="200" width="40" height="20" as="geometry" />
        </mxCell>
        <mxCell id="FTtYy8rnEc6SvxEoSqDr-77" value="&lt;font style=&quot;font-size: 16px&quot; color=&quot;#00ff00&quot;&gt;&lt;b&gt;B2&lt;/b&gt;&lt;/font&gt;" style="text;html=1;align=center;verticalAlign=middle;resizable=0;points=[];autosize=1;" parent="1" vertex="1">
          <mxGeometry x="700" y="200" width="40" height="20" as="geometry" />
        </mxCell>
        <mxCell id="FTtYy8rnEc6SvxEoSqDr-78" value="&lt;font style=&quot;font-size: 16px&quot; color=&quot;#00ff00&quot;&gt;&lt;b&gt;B3&lt;/b&gt;&lt;/font&gt;" style="text;html=1;align=center;verticalAlign=middle;resizable=0;points=[];autosize=1;" parent="1" vertex="1">
          <mxGeometry x="580" y="200" width="40" height="20" as="geometry" />
        </mxCell>
        <mxCell id="FTtYy8rnEc6SvxEoSqDr-79" value="&lt;font style=&quot;font-size: 16px&quot; color=&quot;#00ff00&quot;&gt;&lt;b&gt;B1&lt;br&gt;&lt;/b&gt;&lt;/font&gt;" style="text;html=1;align=center;verticalAlign=middle;resizable=0;points=[];autosize=1;" parent="1" vertex="1">
          <mxGeometry x="820" y="200" width="40" height="20" as="geometry" />
        </mxCell>
      </root>
    </mxGraphModel>
  </diagram>
</mxfile>
